<svg id="Capa_1" enable-background="new 0 0 512 512" height="512" viewBox="0 0 512 512" width="512" xmlns="http://www.w3.org/2000/svg"><g><circle cx="256" cy="256" fill="#a2ddfd" r="248.5"/><path d="m433.689 429.695c-372.716 46.206-376.764-255.874-310.793-383.567-69.364 44.083-115.396 121.599-115.396 209.872 0 137.243 111.257 248.5 248.5 248.5 69.637 0 132.572-28.656 177.689-74.805z" fill="#7acdf9"/><path d="m231.124 252.131c-6.835-6.834-6.835-17.915 0-24.749 5.372-5.372 18.111-25.023 22.806-41.011 2.723-9.273 12.449-14.585 21.721-11.861 9.274 2.723 14.584 12.448 11.861 21.721-6.579 22.409-22.602 46.863-31.64 55.9-6.834 6.834-17.914 6.834-24.748 0z" fill="#efd176"/><path d="m233.959 223.712c-6.254 5.585-14.344 8.671-22.728 8.671h-8.703c-8.592 0-15.558 6.965-15.558 15.558v37.564c0 8.592 6.965 15.558 15.558 15.558h8.703c8.384 0 16.475 3.087 22.728 8.671 8.274 7.389 18.979 11.473 30.072 11.473h28.078c13.473 0 24.396-10.922 24.396-24.396v-60.178c0-13.473-10.922-24.396-24.396-24.396h-28.078c-11.093.002-21.798 4.086-30.072 11.475z" fill="#f6ee86"/><path d="m312.196 50.563c-25.121 0-45.559 20.437-45.559 45.558s20.438 45.558 45.559 45.558 45.558-20.437 45.558-45.558c-.001-25.121-20.438-45.558-45.558-45.558zm0 76.555c-17.093 0-30.998-13.906-30.998-30.998s13.905-30.997 30.998-30.997c17.092 0 30.997 13.905 30.997 30.997 0 17.093-13.906 30.998-30.997 30.998zm-175.16 314.35c3.294 2.307 7.833 1.505 10.139-1.788l45.948-65.621c2.306-3.294 1.506-7.833-1.788-10.139-3.293-2.306-7.833-1.505-10.139 1.788l-45.948 65.621c-2.307 3.293-1.506 7.833 1.788 10.139zm118.964-441.468c-47.038 0-93.026 12.869-132.995 37.215-3.538 2.155-4.658 6.77-2.504 10.307 2.156 3.538 6.772 4.657 10.307 2.503 37.617-22.914 80.908-35.025 125.192-35.025 133.193 0 241 107.787 241 241 0 56.82-20.15 111.989-56.738 155.342-2.672 3.165-2.271 7.897.895 10.569 3.163 2.672 7.897 2.271 10.568-.894 38.869-46.056 60.275-104.661 60.275-165.017 0-141.488-114.501-256-256-256zm159.698 250.697c-2.93 2.929-2.93 7.677-.001 10.606l13.699 13.7c2.928 2.927 7.677 2.929 10.607 0l24.475-24.475c2.929-2.929 2.929-7.678 0-10.606-2.93-2.929-7.678-2.929-10.607 0l-19.171 19.171-8.396-8.396c-2.928-2.929-7.677-2.93-10.606 0zm-3.472-140.711c-2.835-2.834-7.457-2.849-10.306.009-27.59 27.702-29.701 29.739-52.434 52.647-2.833 2.854-2.814 7.466.038 10.297.45.448 11.091 11.006 15.394 15.161 16.231 15.674 40.519 11.154 57.134-5.461h-.001c17.318-17.316 22.026-40.803 5.054-57.776zm-.47 62.357c0 .001-.001.001 0 0-9.984 9.983-25.736 15.894-36.724 5.282-2.315-2.234-6.626-6.485-10.077-9.897 22.092-22.236 14.996-15.058 42.132-42.29l9.72 9.721c11.231 11.23 6.129 26.005-5.051 37.184zm-331.792 21.388c17.806 17.807 46.625 17.804 64.428 0 8.709-8.708 12.67-19.469 11.455-31.119-1.085-10.406-6.468-20.921-15.155-29.608-2.844-2.843-7.453-2.843-10.297 0l-16.194 16.194c-2.843 2.843-2.843 7.453 0 10.296 2.844 2.843 7.453 2.843 10.297 0l10.639-10.639c3.53 4.907 5.695 10.165 6.228 15.269.755 7.238-1.691 13.735-7.269 19.313-12.115 12.115-31.722 12.114-43.836 0-12.116-12.115-12.115-31.722 0-43.837 4.392-4.393 9.922-7.336 15.991-8.511 3.947-.764 6.528-4.584 5.764-8.532-.764-3.947-4.582-6.526-8.532-5.764-8.933 1.73-17.065 6.056-23.52 12.511-17.762 17.762-17.762 46.664.001 64.427zm273.759 204.596c-1.376-3.778-5.553-5.727-9.332-4.351l-22.27 8.106-8.594-23.613 24.588-8.949c3.778-1.375 5.727-5.553 4.351-9.331-1.375-3.779-5.552-5.728-9.332-4.352l-31.429 11.44c-3.776 1.375-5.725 5.553-4.351 9.331l27.149 74.59c1.377 3.78 5.555 5.724 9.332 4.351l31.428-11.44c3.779-1.375 5.727-5.553 4.351-9.332-1.375-3.778-5.553-5.727-9.332-4.351l-24.587 8.95-8.594-23.612 22.27-8.106c3.779-1.375 5.727-5.553 4.352-9.331zm83.553-58.793c-8.931-12.811-24.742-11.552-36.567-6.101-9.955 4.59-19.632 8.409-22.11 9.375-6.817 1.034-12.878-6.596-8.203-15.302 6.321-11.77 21.064-13.384 21.334-13.412 3.988-.365 6.935-3.884 6.589-7.878-.347-4.006-3.852-6.973-7.881-6.625-.923.08-22.747 2.177-32.869 21.027-10.594 19.73 5.271 40.404 24.529 36.348 2.256-.474 18.814-7.592 24.709-10.309 8.508-3.922 15.259-3.482 18.525 1.204 4.287 6.15 1.26 14.807-3.763 19.832-6.168 6.166-14.632 9.605-22.632 9.219-4.004-.205-7.432 2.898-7.629 6.913-.197 4.016 2.898 7.431 6.914 7.629 11.759.584 24.417-4.243 33.642-13.466 10.821-10.824 13.148-27.355 5.412-38.454zm-188.051 37.299h-23.269c-4.021 0-7.28 3.26-7.28 7.28v80.109c0 3.953 3.184 7.28 7.313 7.28 0 0 21.401-.095 27.301-.095 15.904 0 28.842-12.939 28.842-28.843 0-9.984-5.101-18.797-12.831-23.977 13.394-16.73 1.458-41.754-20.076-41.754zm-15.989 14.56h15.989c6.149 0 11.153 5.003 11.153 11.153 0 6.149-5.003 11.153-11.153 11.153-.948 0 3.764-.008-15.989.022zm20.053 65.453c-3.658 0-13.259.036-20.053.065v-28.6c13.941-.057 6.44-.014 20.053-.029 7.875 0 14.282 6.407 14.282 14.282s-6.407 14.282-14.282 14.282zm-156.986-216.924c-2.93-2.929-7.678-2.929-10.607 0l-19.171 19.171-8.396-8.396c-2.929-2.929-7.678-2.93-10.606 0-2.93 2.929-2.93 7.677-.001 10.606l13.699 13.7c2.928 2.927 7.678 2.929 10.607 0l24.475-24.475c2.928-2.928 2.928-7.677 0-10.606zm-3.378 144.996 74.17-37.179c3.594-1.802 5.047-6.176 3.246-9.771-1.802-3.595-6.175-5.049-9.771-3.246l-59.754 29.953 29.395-60.651c1.754-3.618.242-7.973-3.376-9.727-3.625-1.755-7.974-.242-9.727 3.376l-36.451 75.209c-3.704 7.785 4.509 15.859 12.268 12.036zm322.21 52.076c-43.977 38.696-100.491 60.006-159.135 60.006-133.193 0-241-107.788-241-241 0-70.669 30.866-137.529 84.685-183.436 3.151-2.688 3.527-7.422.839-10.573-2.687-3.151-7.422-3.528-10.573-.839-57.166 48.761-89.951 119.781-89.951 194.848 0 141.484 114.498 256 256 256 62.293 0 122.327-22.638 169.043-63.745 3.11-2.736 3.413-7.475.677-10.585-2.737-3.11-7.476-3.413-10.585-.676zm-217.772-386.431c-25.121 0-45.558 20.437-45.558 45.558s20.437 45.558 45.558 45.558 45.559-20.437 45.559-45.558-20.438-45.558-45.559-45.558zm0 76.555c-17.092 0-30.997-13.906-30.997-30.998s13.906-30.997 30.997-30.997c17.092 0 30.998 13.905 30.998 30.997 0 17.093-13.905 30.998-30.998 30.998zm49.37 57.14c-3.212 10.941-11.114 24.998-17.453 33.589-.105.092-.213.178-.317.271v.001c-4.885 4.362-11.183 6.765-17.732 6.765h-8.703c-12.714 0-23.058 10.344-23.058 23.058v37.564c0 12.714 10.344 23.058 23.058 23.058h8.703c6.551 0 12.849 2.402 17.733 6.766 9.661 8.627 22.115 13.379 35.067 13.379h28.077c17.587 0 31.896-14.308 31.896-31.896v-60.178c0-17.425-14.048-31.623-31.412-31.883.789-2.183 1.506-4.327 2.116-6.407 3.891-13.255-3.684-27.138-16.943-31.03-13.255-3.894-27.139 3.682-31.032 16.943zm45.375 35.481c9.316 0 16.896 7.579 16.896 16.896v4.204h-25.333c-4.143 0-7.5 3.358-7.5 7.5s3.357 7.5 7.5 7.5h25.333v21.77h-25.333c-4.143 0-7.5 3.358-7.5 7.5s3.357 7.5 7.5 7.5h25.333v4.204c0 9.316-7.579 16.896-16.896 16.896h-28.077c-9.262 0-18.168-3.398-25.076-9.567-7.637-6.821-17.483-10.578-27.725-10.578h-8.703c-4.443 0-8.058-3.615-8.058-8.058v-37.564c0-4.443 3.614-8.058 8.058-8.058h8.703c10.241 0 20.087-3.756 27.725-10.578l-.001.001c6.909-6.17 15.814-9.567 25.077-9.567h28.077zm-30.982-31.255c1.551-5.286 7.095-8.342 12.412-6.777 5.301 1.557 8.335 7.108 6.777 12.412-.987 3.363-2.261 6.925-3.779 10.62-10.562.179-14.873-.5-22.425.947 2.882-5.745 5.397-11.691 7.015-17.202z"/></g></svg>